<svg viewBox="-649.5 -328 1299 656" width="1299" height="656" style="background-color: rgb(255, 255, 255);" xmlns="http://www.w3.org/2000/svg"><path d="M-0.6230808520560073,17.69842392065541L-26.266747563929954,14.10687949675901M-26.266747563929947,-66.55382881624791L-26.266747563929954,14.10687949675901M-26.266747563929954,14.10687949675901L-57.295641291072265,43.64596652604931M-0.6230808520560027,-62.96228439235152L-0.6230808520560073,17.69842392065541M-0.6230808520560073,17.69842392065541L-31.651974579198317,47.2375109499457" style="fill:none;stroke:rgb(0,0,0);stroke-width:1;stroke-linecap:round"></path><path d="M-0.6230808520559982,17.69842392065541L-26.266747563929947,14.106879496759014L-26.266747563929947,-66.5538288162479zM-0.6230808520559982,-62.96228439235151L-0.6230808520559982,17.69842392065541L-26.266747563929947,-66.5538288162479zM-57.295641291072265,43.64596652604932L-26.266747563929947,14.106879496759014L-0.6230808520559982,17.69842392065541z" style="fill:rgb(238,238,238); fill-opacity: 0.77"></path><path d="M-0.6230808520560027,-62.96228439235152L-26.266747563929947,-66.55382881624791M-26.266747563929947,-66.55382881624791L-57.295641291072265,-37.014741786957615M74.84628714422381,22.689649566026617L33.023267634691024,16.832092836808155M33.023267634691024,-44.58869791333451L33.023267634691024,16.832092836808155M33.023267634691024,16.832092836808155L9.39566469538111,39.3252511703028M-0.6230808520560027,-62.96228439235152L-31.651974579198313,-33.42319736306121" style="fill:none;stroke:rgb(0,0,0);stroke-width:1;stroke-linecap:round"></path><path d="M-31.65197457919831,47.23751094994571L-0.6230808520559982,17.69842392065541L-0.6230808520559982,-62.96228439235151zM-26.266747563929947,-66.5538288162479L-26.266747563929947,14.106879496759014L-57.295641291072265,-37.014741786957615zM74.84628714422381,22.689649566026617L33.023267634691024,16.832092836808158L33.023267634691024,-44.58869791333451z" style="fill:rgb(238,238,238); fill-opacity: 0.77"></path><path d="M74.84628714422381,-38.73114118411605L74.84628714422381,22.689649566026617M74.84628714422381,22.689649566026617L51.21868420491389,45.18280789952127M-14.07640615681306,-17.78280263543556L-39.720072868687005,-21.37434705933196M-39.720072868687005,-22.8726540592141L-39.720072868687005,-21.37434705933196M-39.720072868687005,-21.37434705933196L-40.29644778086316,-20.82564594088447M-14.07640615681306,-19.2811096353177L-39.720072868687005,-22.8726540592141M-39.720072868687005,-22.8726540592141L-40.29644778086316,-22.323952940766613" style="fill:none;stroke:rgb(0,0,0);stroke-width:1;stroke-linecap:round"></path><path d="M-39.720072868687,-22.872654059214103L-39.720072868687,-21.37434705933196L-40.29644778086316,-22.323952940766613zM-39.720072868687,-21.37434705933196L-40.29644778086316,-20.825645940884474L-40.29644778086316,-22.323952940766613z" style="fill:rgb(153,221,255); fill-opacity: 0.08"></path><path d="M-40.29644778086316,-22.323952940766613L-40.29644778086316,-20.82564594088447M-40.29644778086316,-20.82564594088447L-14.65278106898922,-17.234101516988073M-40.29644778086316,-22.323952940766613L-14.65278106898922,-18.732408516870212" style="fill:none;stroke:rgb(0,0,0);stroke-width:1;stroke-linecap:round"></path><path d="M-14.076406156813048,-17.78280263543556L-39.720072868687,-21.37434705933196L-39.720072868687,-22.872654059214103zM-40.29644778086316,-20.825645940884474L-39.720072868687,-21.37434705933196L-14.076406156813048,-17.78280263543556zM-40.29644778086316,-22.323952940766613L-14.65278106898921,-18.732408516870212L-39.720072868687,-22.872654059214103z" style="fill:rgb(153,221,255); fill-opacity: 0.08"></path><path d="M-31.65197457919831,47.23751094994571L-57.295641291072265,43.64596652604932L-0.6230808520559982,17.69842392065541z" style="fill:rgb(238,238,238); fill-opacity: 0.77"></path><path d="M-40.29644778086316,-22.323952940766613L-40.29644778086316,-20.825645940884474L-14.65278106898921,-18.732408516870212zM-14.076406156813048,-19.2811096353177L-14.076406156813048,-17.78280263543556L-39.720072868687,-22.872654059214103zM-14.65278106898921,-17.234101516988073L-40.29644778086316,-20.825645940884474L-14.076406156813048,-17.78280263543556zM-14.65278106898921,-18.732408516870212L-14.076406156813048,-19.2811096353177L-39.720072868687,-22.872654059214103zM-40.29644778086316,-20.825645940884474L-14.65278106898921,-17.234101516988073L-14.65278106898921,-18.732408516870212z" style="fill:rgb(153,221,255); fill-opacity: 0.08"></path><path d="M74.84628714422381,-38.73114118411605L33.023267634691024,-44.58869791333451M33.023267634691024,-44.58869791333451L9.39566469538111,-22.09553957983986" style="fill:none;stroke:rgb(0,0,0);stroke-width:1;stroke-linecap:round"></path><path d="M9.395664695381114,39.3252511703028L33.023267634691024,16.832092836808158L74.84628714422381,22.689649566026617z" style="fill:rgb(238,238,238); fill-opacity: 0.77"></path><path d="M-14.076406768457247,-19.28110940532818L-14.076406768457247,-17.78280240544604M-14.076406768457247,-17.78280240544604L-14.652781509867603,-17.234101449565298M-14.076406768457247,-17.78280240544604L22.559503767386925,-10.547381020724496M-14.07640615681306,-19.2811096353177L-14.07640615681306,-17.78280263543556M-14.07640615681306,-17.78280263543556L-14.65278106898922,-17.234101516988073" style="fill:none;stroke:rgb(0,0,0);stroke-width:1;stroke-linecap:round"></path><path d="M-26.266747563929947,14.106879496759014L-57.295641291072265,43.64596652604932L-57.295641291072265,-37.014741786957615zM74.84628714422381,-38.73114118411605L74.84628714422381,22.689649566026617L33.023267634691024,-44.58869791333451z" style="fill:rgb(238,238,238); fill-opacity: 0.77"></path><path d="M-14.076406768457247,-19.28110940532818L-14.652781509867603,-18.732408449447437M-14.076406768457247,-19.28110940532818L22.559503767386925,-10.547381020724496M-14.07640615681306,-19.2811096353177L-14.65278106898922,-18.732408516870212" style="fill:none;stroke:rgb(0,0,0);stroke-width:1;stroke-linecap:round"></path><path d="M-14.65278106898921,-17.234101516988073L-14.076406156813048,-17.78280263543556L-14.076406156813048,-19.2811096353177z" style="fill:rgb(153,221,255); fill-opacity: 0.08"></path><path d="M-14.076406171074485,-19.28110961743779L-14.076406171074485,-17.782802645550056L-14.652781072481647,-17.23410153735452zM-14.076406171074485,-19.28110961743779L-14.652781072481647,-17.23410153735452L-14.652781072481647,-18.732408509242248z" style="fill:rgb(255,187,187); fill-opacity: 0.08"></path><path d="M-14.65278106898921,-18.732408516870212L-14.65278106898921,-17.234101516988073L-14.076406156813048,-19.2811096353177z" style="fill:rgb(153,221,255); fill-opacity: 0.08"></path><path d="M-14.652781509867603,-17.234101449565298L-14.652781509867603,-18.732408449447437M-14.652781509867603,-17.234101449565298L22.559503767386925,-10.547381020724496M-14.65278106898922,-18.732408516870212L-14.65278106898922,-17.234101516988073M-14.652781509867603,-18.732408449447437L22.559503767386925,-10.547381020724496" style="fill:none;stroke:rgb(0,0,0);stroke-width:1;stroke-linecap:round"></path><path d="M-31.65197457919831,-33.42319736306122L-0.6230808520559982,-62.96228439235151L-26.266747563929947,-66.5538288162479z" style="fill:rgb(238,238,238); fill-opacity: 0.77"></path><path d="M-14.076406171074485,-17.782802645550056L-14.076406171074485,-19.28110961743779L22.559504295247066,-10.547380870634052zM-14.652781072481647,-17.23410153735452L-14.076406171074485,-17.782802645550056L22.559504295247066,-10.547380870634052zM-14.076406171074485,-19.28110961743779L-14.652781072481647,-18.732408509242248L22.559504295247066,-10.547380870634052zM-14.652781072481647,-18.732408509242248L-14.652781072481647,-17.23410153735452L22.559504295247066,-10.547380870634052z" style="fill:rgb(255,187,187); fill-opacity: 0.08"></path><path d="M33.023267634691024,-44.58869791333451L33.023267634691024,16.832092836808158L9.395664695381114,-22.095539579839865z" style="fill:rgb(238,238,238); fill-opacity: 0.77"></path><path d="M74.84628714422381,-38.73114118411605L51.21868420491389,-16.2379828506214M-57.295641291072265,-37.014741786957615L-57.295641291072265,43.64596652604931M-57.295641291072265,43.64596652604931L-31.651974579198317,47.2375109499457" style="fill:none;stroke:rgb(0,0,0);stroke-width:1;stroke-linecap:round"></path><path d="M51.2186842049139,45.18280789952127L74.84628714422381,22.689649566026617L74.84628714422381,-38.73114118411605z" style="fill:rgb(238,238,238); fill-opacity: 0.77"></path><path d="M172.30157583607664,29.390618748002293L107.58416464544129,20.326569526714035M107.58416464544129,-17.131103694692356L107.58416464544129,20.326569526714035M107.58416464544129,20.326569526714035L93.17479252410048,34.044096837634235" style="fill:none;stroke:rgb(0,0,0);stroke-width:1;stroke-linecap:round"></path><path d="M-31.65197457919831,-33.42319736306122L-31.65197457919831,47.23751094994571L-0.6230808520559982,-62.96228439235151zM33.023267634691024,16.832092836808158L9.395664695381114,39.3252511703028L9.395664695381114,-22.095539579839865zM51.2186842049139,45.18280789952127L9.395664695381114,39.3252511703028L74.84628714422381,22.689649566026617z" style="fill:rgb(238,238,238); fill-opacity: 0.77"></path><path d="M-31.651974579198313,-33.42319736306121L-31.651974579198317,47.2375109499457" style="fill:none;stroke:rgb(0,0,0);stroke-width:1;stroke-linecap:round"></path><path d="M-57.295641291072265,-37.014741786957615L-31.65197457919831,-33.42319736306122L-26.266747563929947,-66.5538288162479zM51.2186842049139,-16.2379828506214L74.84628714422381,-38.73114118411605L33.023267634691024,-44.58869791333451z" style="fill:rgb(238,238,238); fill-opacity: 0.77"></path><path d="M58.9178803334122,-2.087412767337231L17.09486082387942,-7.944969496555694M17.09486082387942,-9.443276496437834L17.09486082387942,-7.944969496555694M17.09486082387942,-7.944969496555694L16.51848591170326,-7.396268378108208M58.9178803334122,-3.5857197672193704L17.09486082387942,-9.443276496437834M17.09486082387942,-9.443276496437834L16.51848591170326,-8.894575377990346" style="fill:none;stroke:rgb(0,0,0);stroke-width:1;stroke-linecap:round"></path><path d="M17.09486082387942,-9.443276496437834L17.09486082387942,-7.944969496555695L16.51848591170326,-8.89457537799035zM17.09486082387942,-7.944969496555695L16.51848591170326,-7.396268378108209L16.51848591170326,-8.89457537799035z" style="fill:rgb(153,221,255); fill-opacity: 0.08"></path><path d="M16.51848591170326,-8.894575377990346L16.51848591170326,-7.396268378108208M16.51848591170326,-7.396268378108208L58.34150542123604,-1.538711648889745M16.51848591170326,-8.894575377990346L58.34150542123604,-3.0370186487718844" style="fill:none;stroke:rgb(0,0,0);stroke-width:1;stroke-linecap:round"></path><path d="M-57.295641291072265,43.64596652604932L-31.65197457919831,47.23751094994571L-31.65197457919831,-33.42319736306122zM172.3015758360766,29.39061874800229L107.58416464544126,20.326569526714035L107.58416464544126,-17.13110369469236z" style="fill:rgb(238,238,238); fill-opacity: 0.77"></path><path d="M9.39566469538111,-22.09553957983986L9.39566469538111,39.3252511703028M9.39566469538111,39.3252511703028L51.21868420491389,45.18280789952127M172.30157583607664,-8.067054473404099L107.58416464544129,-17.131103694692356M107.58416464544129,-17.131103694692356L93.17479252410048,-3.4135763837721598" style="fill:none;stroke:rgb(0,0,0);stroke-width:1;stroke-linecap:round"></path><path d="M58.9178803334122,-2.0874127673372316L17.09486082387942,-7.944969496555695L17.09486082387942,-9.443276496437834zM16.51848591170326,-7.396268378108209L17.09486082387942,-7.944969496555695L58.9178803334122,-2.0874127673372316zM16.51848591170326,-8.89457537799035L58.34150542123604,-3.0370186487718853L17.09486082387942,-9.443276496437834zM16.51848591170326,-8.89457537799035L16.51848591170326,-7.396268378108209L58.34150542123604,-3.0370186487718853z" style="fill:rgb(153,221,255); fill-opacity: 0.08"></path><path d="M93.17479252410048,34.04409683763423L107.58416464544126,20.326569526714035L172.3015758360766,29.39061874800229zM-57.295641291072265,-37.014741786957615L-57.295641291072265,43.64596652604932L-31.65197457919831,-33.42319736306122z" style="fill:rgb(238,238,238); fill-opacity: 0.77"></path><path d="M58.9178803334122,-3.5857197672193712L58.9178803334122,-2.0874127673372316L17.09486082387942,-9.443276496437834zM58.34150542123604,-1.5387116488897459L16.51848591170326,-7.396268378108209L58.9178803334122,-2.0874127673372316zM58.34150542123604,-3.0370186487718853L58.9178803334122,-3.5857197672193712L17.09486082387942,-9.443276496437834z" style="fill:rgb(153,221,255); fill-opacity: 0.08"></path><path d="M107.58416464544126,-17.13110369469236L107.58416464544126,20.326569526714035L93.17479252410048,-3.41357638377216z" style="fill:rgb(238,238,238); fill-opacity: 0.77"></path><path d="M16.51848591170326,-7.396268378108209L58.34150542123604,-1.5387116488897459L58.34150542123604,-3.0370186487718853z" style="fill:rgb(153,221,255); fill-opacity: 0.08"></path><path d="M172.30157583607664,-8.067054473404099L172.30157583607664,29.390618748002293M172.30157583607664,29.390618748002293L157.89220371473584,43.10814605892249" style="fill:none;stroke:rgb(0,0,0);stroke-width:1;stroke-linecap:round"></path><path d="M9.395664695381114,-22.095539579839865L51.2186842049139,-16.2379828506214L33.023267634691024,-44.58869791333451zM51.2186842049139,-16.2379828506214L51.2186842049139,45.18280789952127L74.84628714422381,-38.73114118411605z" style="fill:rgb(238,238,238); fill-opacity: 0.77"></path><path d="M58.917880121039914,-3.5857199181960424L58.917880121039914,-2.0874129183139027M58.917880121039914,-2.0874129183139027L58.34150520886376,-1.538711799866416M58.917880121039914,-2.0874129183139027L97.69442519760439,4.926636222556856M58.9178803334122,-3.5857197672193704L58.9178803334122,-2.087412767337231M58.9178803334122,-2.087412767337231L58.34150542123604,-1.538711648889745" style="fill:none;stroke:rgb(0,0,0);stroke-width:1;stroke-linecap:round"></path><path d="M172.3015758360766,-8.0670544734041L172.3015758360766,29.39061874800229L107.58416464544126,-17.13110369469236z" style="fill:rgb(238,238,238); fill-opacity: 0.77"></path><path d="M58.917880121039914,-3.5857199181960424L58.34150520886376,-3.0370187997485556M58.917880121039914,-3.5857199181960424L97.69442519760439,4.926636222556856M58.9178803334122,-3.5857197672193704L58.34150542123604,-3.0370186487718844" style="fill:none;stroke:rgb(0,0,0);stroke-width:1;stroke-linecap:round"></path><path d="M58.917880074316244,-3.585719783629956L58.917880074316244,-2.0874128117422246L58.34150517290909,-1.5387117035466855z" style="fill:rgb(255,187,187); fill-opacity: 0.08"></path><path d="M58.34150542123604,-1.5387116488897459L58.9178803334122,-2.0874127673372316L58.9178803334122,-3.5857197672193712z" style="fill:rgb(153,221,255); fill-opacity: 0.08"></path><path d="M58.917880074316244,-3.585719783629956L58.34150517290909,-1.5387117035466855L58.34150517290909,-3.037018675434416z" style="fill:rgb(255,187,187); fill-opacity: 0.08"></path><path d="M58.34150542123604,-3.0370186487718853L58.34150542123604,-1.5387116488897459L58.9178803334122,-3.5857197672193712z" style="fill:rgb(153,221,255); fill-opacity: 0.08"></path><path d="M58.34150520886376,-1.538711799866416L58.34150520886376,-3.0370187997485556M58.34150520886376,-1.538711799866416L97.69442519760439,4.926636222556856M58.34150542123604,-3.0370186487718844L58.34150542123604,-1.538711648889745M58.34150520886376,-3.0370187997485556L97.69442519760439,4.926636222556856M-57.295641291072265,-37.014741786957615L-31.651974579198313,-33.42319736306121M51.21868420491389,-16.2379828506214L51.21868420491389,45.18280789952127" style="fill:none;stroke:rgb(0,0,0);stroke-width:1;stroke-linecap:round"></path><path d="M58.917880074316244,-2.0874128117422246L58.917880074316244,-3.585719783629956L97.69442169554407,4.926635685562069z" style="fill:rgb(255,187,187); fill-opacity: 0.08"></path><path d="M107.58416464544126,20.326569526714035L93.17479252410048,34.04409683763423L93.17479252410048,-3.41357638377216z" style="fill:rgb(238,238,238); fill-opacity: 0.77"></path><path d="M58.34150517290909,-1.5387117035466855L58.917880074316244,-2.0874128117422246L97.69442169554407,4.926635685562069zM58.917880074316244,-3.585719783629956L58.34150517290909,-3.037018675434416L97.69442169554407,4.926635685562069zM58.34150517290909,-3.037018675434416L58.34150517290909,-1.5387117035466855L97.69442169554407,4.926635685562069z" style="fill:rgb(255,187,187); fill-opacity: 0.08"></path><path d="M229.81580122377213,92.91828076213415L213.63644842611328,90.65226845681208M213.63644842611328,-48.79165600054766L213.63644842611328,90.65226845681208M213.63644842611328,90.65226845681208L207.4306692708469,96.5600862528303" style="fill:none;stroke:rgb(0,0,0);stroke-width:1;stroke-linecap:round"></path><path d="M9.395664695381114,39.3252511703028L51.2186842049139,45.18280789952127L51.2186842049139,-16.2379828506214zM9.395664695381114,-22.095539579839865L9.395664695381114,39.3252511703028L51.2186842049139,-16.2379828506214z" style="fill:rgb(238,238,238); fill-opacity: 0.77"></path><path d="M93.17479252410048,-3.4135763837721598L93.17479252410048,34.044096837634235M93.17479252410048,34.044096837634235L157.89220371473584,43.10814605892249M229.81580122377213,-46.52564369522559L229.81580122377213,92.91828076213415M229.81580122377213,92.91828076213415L223.61002206850574,98.82609855815238" style="fill:none;stroke:rgb(0,0,0);stroke-width:1;stroke-linecap:round"></path><path d="M207.43066927084686,96.5600862528303L213.63644842611328,90.65226845681208L229.81580122377213,92.91828076213415z" style="fill:rgb(238,238,238); fill-opacity: 0.77"></path><path d="M9.39566469538111,-22.09553957983986L51.21868420491389,-16.2379828506214M172.30157583607664,-8.067054473404099L157.89220371473584,5.6504728375161015" style="fill:none;stroke:rgb(0,0,0);stroke-width:1;stroke-linecap:round"></path><path d="M157.89220371473584,43.10814605892249L93.17479252410048,34.04409683763423L172.3015758360766,29.39061874800229zM157.89220371473584,43.10814605892249L172.3015758360766,29.39061874800229L172.3015758360766,-8.0670544734041zM157.89220371473584,5.650472837516098L172.3015758360766,-8.0670544734041L107.58416464544126,-17.13110369469236zM223.6100220685057,98.82609855815238L207.43066927084686,96.5600862528303L229.81580122377213,92.91828076213415z" style="fill:rgb(238,238,238); fill-opacity: 0.77"></path><path d="M207.4306692708469,-42.88383820452943L207.4306692708469,96.5600862528303M207.4306692708469,96.5600862528303L223.61002206850574,98.82609855815238" style="fill:none;stroke:rgb(0,0,0);stroke-width:1;stroke-linecap:round"></path><path d="M93.17479252410048,-3.41357638377216L157.89220371473584,5.650472837516098L107.58416464544126,-17.13110369469236zM229.81580122377213,92.91828076213415L213.63644842611328,90.65226845681208L213.63644842611328,-48.79165600054766z" style="fill:rgb(238,238,238); fill-opacity: 0.77"></path><path d="M93.17479252410048,-3.4135763837721598L157.89220371473584,5.6504728375161015M223.61002206850574,-40.61782589920736L223.61002206850574,98.82609855815238M174.1202398036443,18.784318358629346L197.15088619198278,22.009894113615523" style="fill:none;stroke:rgb(0,0,0);stroke-width:1;stroke-linecap:round"></path><path d="M93.17479252410048,-3.41357638377216L93.17479252410048,34.04409683763423L157.89220371473584,5.650472837516098z" style="fill:rgb(238,238,238); fill-opacity: 0.77"></path><path d="M283.3421476750135,86.4044651213494L267.16279487735466,84.13845281602732M267.16279487735466,-27.284489113352645L267.16279487735466,84.13845281602732M267.16279487735466,84.13845281602732L260.9570157220883,90.04627061204557" style="fill:none;stroke:rgb(0,0,0);stroke-width:1;stroke-linecap:round"></path><path d="M93.17479252410048,34.04409683763423L157.89220371473584,43.10814605892249L157.89220371473584,5.650472837516098zM157.89220371473584,5.650472837516098L157.89220371473584,43.10814605892249L172.3015758360766,-8.0670544734041zM213.63644842611328,90.65226845681208L207.43066927084686,96.5600862528303L207.43066927084686,-42.88383820452943z" style="fill:rgb(238,238,238); fill-opacity: 0.77"></path><path d="M157.89220371473584,5.6504728375161015L157.89220371473584,43.10814605892249" style="fill:none;stroke:rgb(0,0,0);stroke-width:1;stroke-linecap:round"></path><path d="M223.6100220685057,98.82609855815238L229.81580122377213,92.91828076213415L229.81580122377213,-46.52564369522559z" style="fill:rgb(238,238,238); fill-opacity: 0.77"></path><path d="M283.3421476750135,-25.018476808030574L283.3421476750135,86.4044651213494M283.3421476750135,86.4044651213494L277.1363685197471,92.31228291736765" style="fill:none;stroke:rgb(0,0,0);stroke-width:1;stroke-linecap:round"></path><path d="M260.9570157220883,90.04627061204559L267.1627948773547,84.13845281602732L283.3421476750135,86.4044651213494z" style="fill:rgb(238,238,238); fill-opacity: 0.77"></path><path d="M196.29940084537938,23.53969544868722L197.15088619198278,24.3372702744357L209.5998842397333,23.753448575770207zM197.6771330565478,19.626027332788073L196.6246393274178,20.62798712342531L209.5998842397333,23.753448575770207zM196.6246393274178,20.62798712342531L196.29940084537938,23.53969544868722L209.5998842397333,23.753448575770207z" style="fill:rgb(0,0,0)"></path><path d="M207.43066927084686,96.5600862528303L223.6100220685057,98.82609855815238L223.6100220685057,-40.61782589920736zM277.13636851974707,92.31228291736765L260.9570157220883,90.04627061204559L283.3421476750135,86.4044651213494z" style="fill:rgb(238,238,238); fill-opacity: 0.77"></path><path d="M260.9570157220883,-21.376671317334395L260.9570157220883,90.04627061204557M260.9570157220883,90.04627061204557L277.1363685197471,92.31228291736765" style="fill:none;stroke:rgb(0,0,0);stroke-width:1;stroke-linecap:round"></path><path d="M229.81580122377213,-46.52564369522559L229.81580122377213,92.91828076213415L213.63644842611328,-48.79165600054766z" style="fill:rgb(238,238,238); fill-opacity: 0.77"></path><path d="M227.64658625488568,26.28099398183449L250.67723264322416,29.50656973682067" style="fill:none;stroke:rgb(0,0,0);stroke-width:1;stroke-linecap:round"></path><path d="M283.3421476750135,86.4044651213494L267.1627948773547,84.13845281602732L267.1627948773547,-27.284489113352645zM213.63644842611328,-48.79165600054766L213.63644842611328,90.65226845681208L207.43066927084686,-42.88383820452943z" style="fill:rgb(238,238,238); fill-opacity: 0.77"></path><path d="M336.8684941262549,89.75055500528595L320.68914132859607,87.48454269996388M320.68914132859607,-15.637227750878896L320.68914132859607,87.48454269996388M320.68914132859607,87.48454269996388L314.4833621733297,93.39236049598212M277.1363685197471,-19.110659012012324L277.1363685197471,92.31228291736765" style="fill:none;stroke:rgb(0,0,0);stroke-width:1;stroke-linecap:round"></path><path d="M267.1627948773547,84.13845281602732L260.9570157220883,90.04627061204559L260.9570157220883,-21.376671317334395zM277.13636851974707,92.31228291736765L283.3421476750135,86.4044651213494L283.3421476750135,-25.018476808030577z" style="fill:rgb(238,238,238); fill-opacity: 0.77"></path><path d="M249.82574729662073,31.036371071892372L250.67723264322416,31.833945897640852L263.1262306909747,31.25012419897536z" style="fill:rgb(0,0,0)"></path><path d="M336.8684941262549,-13.371215445556826L336.8684941262549,89.75055500528595M336.8684941262549,89.75055500528595L330.66271497098853,95.65837280130421" style="fill:none;stroke:rgb(0,0,0);stroke-width:1;stroke-linecap:round"></path><path d="M251.20347950778913,27.12270295599322L250.1509857786592,28.12466274663046L263.1262306909747,31.25012419897536zM250.1509857786592,28.12466274663046L249.82574729662073,31.036371071892372L263.1262306909747,31.25012419897536z" style="fill:rgb(0,0,0)"></path><path d="M223.6100220685057,-40.61782589920736L223.6100220685057,98.82609855815238L229.81580122377213,-46.52564369522559zM314.4833621733296,93.39236049598213L320.68914132859607,87.48454269996388L336.8684941262549,89.75055500528596zM207.43066927084686,-42.88383820452943L207.43066927084686,96.5600862528303L223.6100220685057,-40.61782589920736z" style="fill:rgb(238,238,238); fill-opacity: 0.77"></path><path d="M229.81580122377213,-46.52564369522559L213.63644842611328,-48.79165600054766M213.63644842611328,-48.79165600054766L207.4306692708469,-42.88383820452943" style="fill:none;stroke:rgb(0,0,0);stroke-width:1;stroke-linecap:round"></path><path d="M283.3421476750135,-25.018476808030577L283.3421476750135,86.4044651213494L267.1627948773547,-27.284489113352645zM260.9570157220883,90.04627061204559L277.13636851974707,92.31228291736765L277.13636851974707,-19.110659012012327zM267.1627948773547,-27.284489113352645L267.1627948773547,84.13845281602732L260.9570157220883,-21.376671317334395zM330.66271497098853,95.6583728013042L314.4833621733296,93.39236049598213L336.8684941262549,89.75055500528596z" style="fill:rgb(238,238,238); fill-opacity: 0.77"></path><path d="M281.1729327061271,33.77766960503964L304.20357909446557,37.00324536002582M314.4833621733297,-9.729409954860648L314.4833621733297,93.39236049598212M314.4833621733297,93.39236049598212L330.66271497098853,95.65837280130421M229.81580122377213,-46.52564369522559L223.61002206850574,-40.61782589920736" style="fill:none;stroke:rgb(0,0,0);stroke-width:1;stroke-linecap:round"></path><path d="M336.8684941262549,89.75055500528596L320.68914132859607,87.48454269996388L320.68914132859607,-15.63722775087889zM223.6100220685057,-40.61782589920736L229.81580122377213,-46.52564369522559L213.63644842611328,-48.79165600054766z" style="fill:rgb(238,238,238); fill-opacity: 0.77"></path><path d="M330.66271497098853,-7.463397649538576L330.66271497098853,95.65837280130421" style="fill:none;stroke:rgb(0,0,0);stroke-width:1;stroke-linecap:round"></path><path d="M207.43066927084686,-42.88383820452943L223.6100220685057,-40.61782589920736L213.63644842611328,-48.79165600054766z" style="fill:rgb(238,238,238); fill-opacity: 0.77"></path><path d="M283.3421476750135,-25.018476808030574L267.16279487735466,-27.284489113352645M267.16279487735466,-27.284489113352645L260.9570157220883,-21.376671317334395" style="fill:none;stroke:rgb(0,0,0);stroke-width:1;stroke-linecap:round"></path><path d="M320.68914132859607,87.48454269996388L314.4833621733296,93.39236049598213L314.4833621733296,-9.72940995486064zM277.13636851974707,-19.110659012012327L277.13636851974707,92.31228291736765L283.3421476750135,-25.018476808030577zM330.66271497098853,95.6583728013042L336.8684941262549,89.75055500528596L336.8684941262549,-13.371215445556828z" style="fill:rgb(238,238,238); fill-opacity: 0.77"></path><path d="M207.4306692708469,-42.88383820452943L223.61002206850574,-40.61782589920736" style="fill:none;stroke:rgb(0,0,0);stroke-width:1;stroke-linecap:round"></path><path d="M303.3520937478621,38.533046695097525L304.20357909446557,39.330621520846L316.6525771422161,38.746799822180506zM304.7298259590305,34.61937857919837L303.67733222990057,35.62133836983561L316.6525771422161,38.746799822180506z" style="fill:rgb(0,0,0)"></path><path d="M260.9570157220883,-21.376671317334395L260.9570157220883,90.04627061204559L277.13636851974707,-19.110659012012327z" style="fill:rgb(238,238,238); fill-opacity: 0.77"></path><path d="M303.67733222990057,35.62133836983561L303.3520937478621,38.533046695097525L316.6525771422161,38.746799822180506z" style="fill:rgb(0,0,0)"></path><path d="M283.3421476750135,-25.018476808030574L277.1363685197471,-19.110659012012324M390.3948405774962,72.48125426559128L374.2154877798374,70.21524196026922M374.2154877798374,16.625424235226085L374.2154877798374,70.21524196026922M374.2154877798374,70.21524196026922L368.009708624571,76.12305975628745" style="fill:none;stroke:rgb(0,0,0);stroke-width:1;stroke-linecap:round"></path><path d="M336.8684941262549,-13.371215445556828L336.8684941262549,89.75055500528596L320.68914132859607,-15.63722775087889zM277.13636851974707,-19.110659012012327L283.3421476750135,-25.018476808030577L267.1627948773547,-27.284489113352645zM320.68914132859607,-15.63722775087889L320.68914132859607,87.48454269996388L314.4833621733296,-9.72940995486064zM314.4833621733296,93.39236049598213L330.66271497098853,95.6583728013042L330.66271497098853,-7.46339764953858z" style="fill:rgb(238,238,238); fill-opacity: 0.77"></path><path d="M334.69927915736844,41.2743452282448L357.729925545707,44.49992098323098M390.3948405774962,18.891436540548145L390.3948405774962,72.48125426559128M390.3948405774962,72.48125426559128L384.1890614222298,78.38907206160953" style="fill:none;stroke:rgb(0,0,0);stroke-width:1;stroke-linecap:round"></path><path d="M260.9570157220883,-21.376671317334395L277.13636851974707,-19.110659012012327L267.1627948773547,-27.284489113352645zM368.009708624571,76.12305975628746L374.2154877798374,70.21524196026922L390.3948405774963,72.48125426559129zM390.3948405774963,72.48125426559129L374.2154877798374,70.21524196026922L374.2154877798374,16.625424235226088z" style="fill:rgb(238,238,238); fill-opacity: 0.77"></path><path d="M260.9570157220883,-21.376671317334395L277.1363685197471,-19.110659012012324M336.8684941262549,-13.371215445556826L320.68914132859607,-15.637227750878896M320.68914132859607,-15.637227750878896L314.4833621733297,-9.729409954860648" style="fill:none;stroke:rgb(0,0,0);stroke-width:1;stroke-linecap:round"></path><path d="M384.1890614222299,78.38907206160953L368.009708624571,76.12305975628746L390.3948405774963,72.48125426559129zM330.66271497098853,-7.46339764953858L330.66271497098853,95.6583728013042L336.8684941262549,-13.371215445556828z" style="fill:rgb(238,238,238); fill-opacity: 0.77"></path><path d="M356.8784401991036,46.029722318302674L357.729925545707,46.82729714405116L370.1789235934575,46.243475445385656z" style="fill:rgb(0,0,0)"></path><path d="M368.009708624571,22.533242031244324L368.009708624571,76.12305975628745M368.009708624571,76.12305975628745L384.1890614222298,78.38907206160953" style="fill:none;stroke:rgb(0,0,0);stroke-width:1;stroke-linecap:round"></path><path d="M314.4833621733296,-9.72940995486064L314.4833621733296,93.39236049598213L330.66271497098853,-7.46339764953858z" style="fill:rgb(238,238,238); fill-opacity: 0.77"></path><path d="M358.2561724102719,42.116054202403525L357.203678681142,43.11801399304076L370.1789235934575,46.243475445385656zM357.203678681142,43.11801399304076L356.8784401991036,46.029722318302674L370.1789235934575,46.243475445385656z" style="fill:rgb(0,0,0)"></path><path d="M374.2154877798374,70.21524196026922L368.009708624571,76.12305975628746L368.009708624571,22.533242031244324z" style="fill:rgb(238,238,238); fill-opacity: 0.77"></path><path d="M336.8684941262549,-13.371215445556826L330.66271497098853,-7.463397649538576" style="fill:none;stroke:rgb(0,0,0);stroke-width:1;stroke-linecap:round"></path><path d="M384.1890614222299,78.38907206160953L390.3948405774963,72.48125426559129L390.3948405774963,18.89143654054815zM390.3948405774963,18.89143654054815L390.3948405774963,72.48125426559129L374.2154877798374,16.625424235226088zM374.2154877798374,16.625424235226088L374.2154877798374,70.21524196026922L368.009708624571,22.533242031244324zM330.66271497098853,-7.46339764953858L336.8684941262549,-13.371215445556828L320.68914132859607,-15.63722775087889z" style="fill:rgb(238,238,238); fill-opacity: 0.77"></path><path d="M384.1890614222298,24.79925433656639L384.1890614222298,78.38907206160953M390.3948405774962,18.891436540548145L374.2154877798374,16.625424235226085M374.2154877798374,16.625424235226085L368.009708624571,22.533242031244324" style="fill:none;stroke:rgb(0,0,0);stroke-width:1;stroke-linecap:round"></path><path d="M314.4833621733296,-9.72940995486064L330.66271497098853,-7.46339764953858L320.68914132859607,-15.63722775087889zM368.009708624571,76.12305975628746L384.1890614222299,78.38907206160953L384.1890614222299,24.79925433656639z" style="fill:rgb(238,238,238); fill-opacity: 0.77"></path><path d="M314.4833621733297,-9.729409954860648L330.66271497098853,-7.463397649538576M390.3948405774962,18.891436540548145L384.1890614222298,24.79925433656639" style="fill:none;stroke:rgb(0,0,0);stroke-width:1;stroke-linecap:round"></path><path d="M384.1890614222299,24.79925433656639L384.1890614222299,78.38907206160953L390.3948405774963,18.89143654054815zM384.1890614222299,24.79925433656639L390.3948405774963,18.89143654054815L374.2154877798374,16.625424235226088zM368.009708624571,22.533242031244324L368.009708624571,76.12305975628746L384.1890614222299,24.79925433656639zM368.009708624571,22.533242031244324L384.1890614222299,24.79925433656639L374.2154877798374,16.625424235226088z" style="fill:rgb(238,238,238); fill-opacity: 0.77"></path><path d="M368.009708624571,22.533242031244324L384.1890614222298,24.79925433656639" style="fill:none;stroke:rgb(0,0,0);stroke-width:1;stroke-linecap:round"></path></svg>